<svg width="223" height="31" viewBox="0 0 223 31" fill="none" xmlns="http://www.w3.org/2000/svg">
<g clip-path="url(#clip0_24_467)">
<path d="M51.5172 12.104C51.5172 12.104 51.6279 10.6316 53.0257 10.0638C54.4236 9.49601 56.2569 10.2082 56.0596 11.2788C55.8623 12.3494 53.8413 13.3599 52.4772 13.0135C51.3801 12.7344 51.5172 12.104 51.5172 12.104Z" fill="#1B4DFC"/>
<path d="M53.2413 10.4728C54.2686 10.0566 55.5269 10.3309 56.0466 10.9299C56.0731 11.0406 56.0803 11.1585 56.0587 11.2812C55.8614 12.3518 53.8404 13.3623 52.4762 13.0159C52.1033 12.9221 51.8747 12.7849 51.7328 12.6478C51.7232 12.566 51.7328 12.513 51.7328 12.513C51.7328 12.513 51.8435 11.0406 53.2413 10.4728Z" fill="#1B4DFC"/>
<path d="M9.48285 12.104C9.48285 12.104 9.37218 10.6316 7.97433 10.0638C6.57649 9.49601 4.74317 10.2082 4.94045 11.2788C5.13774 12.3494 7.15872 13.3599 8.52289 13.0135C9.61999 12.7344 9.48285 12.104 9.48285 12.104Z" fill="#1B4DFC"/>
<path d="M7.75782 10.4728C6.73049 10.0566 5.47219 10.3309 4.95251 10.9299C4.92604 11.0406 4.91882 11.1585 4.94048 11.2812C5.13776 12.3518 7.15875 13.3623 8.52291 13.0159C8.89583 12.9221 9.12439 12.7849 9.26634 12.6478C9.27597 12.566 9.26634 12.513 9.26634 12.513C9.26634 12.513 9.15567 11.0406 7.75782 10.4728Z" fill="#1B4DFC"/>
<path d="M30.5 2.09534C21.7737 2.09534 17.3853 2.6078 15.8334 2.84358C15.4148 2.90614 15.0467 3.14914 14.8229 3.50762L9.27006 12.4457L5.83679 15.0537C5.60582 15.2293 5.33876 15.3568 5.05486 15.4242C4.67713 15.5132 4.33308 15.7057 4.05881 15.98L1.53498 18.5038C1.20537 18.8334 0.996056 19.2617 0.938314 19.7236L0.78674 20.9266L0.0986432 21.99C0.036089 22.0934 0 22.2161 0 22.3389V28.9046H1.22221L1.84535 22.6997L3.90483 26.1547C3.96498 26.2557 4.07324 26.3183 4.19113 26.3183H12.0104C12.34 26.3183 12.4699 26.7441 12.1957 26.9294L11.5461 27.3648C11.3247 27.5116 11.3584 27.846 11.6014 27.9495L13.8101 28.8806C13.851 28.8974 13.8943 28.907 13.94 28.907H30.5H47.06C47.1033 28.907 47.1491 28.8974 47.19 28.8806L49.3986 27.9495C49.644 27.846 49.6753 27.514 49.4539 27.3648L48.8043 26.9294C48.5301 26.7465 48.66 26.3183 48.9896 26.3183H56.8089C56.9268 26.3183 57.035 26.2557 57.0952 26.1547L59.1547 22.6997L59.7778 28.9046H61V22.3389C61 22.2137 60.9639 22.0934 60.8965 21.99L60.2085 20.9266L60.0569 19.7236C59.9991 19.2617 59.7898 18.831 59.4602 18.5038L56.9364 15.98C56.6621 15.7057 56.3181 15.5132 55.9403 15.4242C55.6564 15.3568 55.3918 15.2317 55.1584 15.0537L51.7251 12.4457L46.1722 3.50762C45.9485 3.14914 45.5804 2.90614 45.1618 2.84358C43.6147 2.6078 39.2263 2.09534 30.5 2.09534Z" fill="#1B4DFC"/>
<path d="M45.1656 2.84358C43.6162 2.61021 39.2277 2.09534 30.499 2.09534C21.7703 2.09534 17.3795 2.61021 15.8325 2.84358C15.4138 2.90614 15.0457 3.14914 14.8244 3.50762L9.27148 12.4457H51.7266L46.1737 3.50762C45.9499 3.14914 45.5818 2.90614 45.1656 2.84358Z" fill="#1B4DFC"/>
<path d="M5.07407 15.4193C4.70597 15.5108 4.36432 15.6768 4.09727 15.9462L1.53976 18.5038C1.21015 18.8334 1.00083 19.2616 0.943089 19.7236L0.791515 20.9265C0.514833 21.3548 0.822793 21.9178 1.33044 21.9178H60.8508L60.2084 20.9265L60.0568 19.7236C59.9991 19.2616 59.7898 18.831 59.4602 18.5038L56.9027 15.9462C56.6356 15.6792 56.2916 15.5108 55.9259 15.4193C55.6492 15.352 55.3893 15.2269 55.1608 15.0536L51.7275 12.4456H9.27243L5.83916 15.0536C5.613 15.2269 5.35076 15.3496 5.07407 15.4193Z" fill="#1B4DFC"/>
<path d="M4.94588 17.8975H56.0527C56.1008 17.8975 56.1201 17.8373 56.084 17.8085L49.9344 12.7873H11.0642L4.9146 17.8085C4.87851 17.8373 4.90017 17.8975 4.94588 17.8975Z" fill="#1B4DFC"/>
<path d="M0 22.3388V28.9046H1.22221L1.84535 22.6997L3.90483 26.1546C3.96498 26.2557 4.07324 26.3182 4.19113 26.3182H12.0104C12.34 26.3182 12.4699 26.7441 12.1957 26.9293L11.5461 27.3648C11.3247 27.5116 11.3584 27.846 11.6014 27.9495L13.8101 28.8805C13.851 28.8974 13.8943 28.907 13.94 28.907H47.06C47.1033 28.907 47.1491 28.8974 47.19 28.8805L49.3986 27.9495C49.644 27.846 49.6753 27.514 49.4539 27.3648L48.8043 26.9293C48.5301 26.7465 48.66 26.3182 48.9896 26.3182H56.8089C56.9268 26.3182 57.035 26.2557 57.0952 26.1546L59.1547 22.6997L59.7778 28.9046H61V22.3388C61 22.2137 60.9639 22.0934 60.8965 21.99L60.2085 20.9265L60.1988 20.8447C60.0689 19.7957 59.1763 19.0114 58.1201 19.0114H2.8799C1.8237 19.0114 0.933502 19.7982 0.801175 20.8447L0.791552 20.9265L0.103455 21.99C0.036089 22.0934 0 22.2161 0 22.3388Z" fill="#1B4DFC"/>
<path d="M0 22.3388V28.9046H1.22221L1.7443 23.703C1.77558 23.383 2.19662 23.2892 2.36263 23.5658L3.90483 26.1546C3.96498 26.2557 4.07324 26.3182 4.19113 26.3182H12.0104C12.34 26.3182 12.4699 26.7441 12.1957 26.9293L11.5461 27.3648C11.3247 27.5116 11.3584 27.846 11.6014 27.9495L13.8101 28.8805C13.851 28.8974 13.8943 28.907 13.94 28.907H47.06C47.1033 28.907 47.1491 28.8974 47.19 28.8805L49.3986 27.9495C49.644 27.846 49.6753 27.514 49.4539 27.3648L48.8043 26.9293C48.5301 26.7465 48.66 26.3182 48.9896 26.3182H56.8089C56.9268 26.3182 57.035 26.2557 57.0952 26.1546L58.6374 23.5658C58.801 23.2892 59.222 23.383 59.2557 23.703L59.7778 28.9046H61V22.3388C61 22.2137 60.9639 22.0934 60.8965 21.99L60.2085 20.9265L60.1988 20.8447C60.0689 19.7957 59.1763 19.0114 58.1201 19.0114H2.8799C1.8237 19.0114 0.933502 19.7982 0.801175 20.8447L0.791552 20.9265L0.103455 21.99C0.036089 22.0934 0 22.2161 0 22.3388Z" fill="#1B4DFC"/>
<path d="M18.4559 23.3301C18.877 22.8537 19.4833 22.5818 20.1184 22.5818H40.8792C41.5144 22.5818 42.1207 22.8537 42.5417 23.3301L44.2283 25.2356C44.6012 25.6566 44.3029 26.3183 43.7399 26.3183H17.2578C16.6972 26.3183 16.3989 25.6566 16.7694 25.2356L18.4559 23.3301Z" fill="#1B4DFC"/>
<path d="M13.5309 22.5489C11.6351 21.9186 8.67578 21.0116 5.10778 20.1767C4.65787 20.0708 4.18631 20.1959 3.85188 20.5135C3.38513 20.9538 3.28889 21.6588 3.61851 22.2097L5.02838 24.5579C5.27619 24.9693 5.72129 25.2219 6.20007 25.2219H13.0858C13.4082 25.2219 13.7186 25.1089 13.964 24.9019L13.9736 24.8923C14.7941 24.2042 14.5438 22.8858 13.5285 22.5489H13.5309Z" fill="white"/>
<path opacity="0.24" d="M6.19961 24.8778C5.84113 24.8778 5.5043 24.6878 5.32145 24.3798L3.91157 22.0316C3.66616 21.6226 3.74075 21.0885 4.0872 20.7589C4.27727 20.5784 4.52749 20.4798 4.79214 20.4798C4.87154 20.4798 4.95093 20.4894 5.03033 20.5063C8.60554 21.3435 11.5672 22.253 13.4222 22.8713C13.7783 22.9892 14.0333 23.2803 14.1055 23.6508C14.1753 24.0213 14.0454 24.387 13.7566 24.63C13.5618 24.7936 13.3284 24.8778 13.0878 24.8778H6.20202H6.19961Z" fill="white"/>
<path d="M47.0239 24.7929L47.0336 24.8025C47.279 25.0094 47.5917 25.1225 47.9117 25.1225H54.7975C55.2787 25.1225 55.7214 24.8699 55.9692 24.4585L57.3791 22.1103C57.7087 21.5593 57.6124 20.8544 57.1457 20.4141C56.8113 20.0965 56.3397 19.9714 55.8898 20.0773C52.3218 20.9121 49.3625 21.8192 47.4666 22.4495C46.4513 22.7864 46.2011 24.1072 47.0215 24.7929H47.0239Z" fill="white"/>
<path opacity="0.24" d="M54.7994 24.7785C55.1579 24.7785 55.4947 24.5884 55.6776 24.2804L57.0874 21.9323C57.3328 21.5232 57.2583 20.9891 56.9118 20.6595C56.7217 20.4791 56.4715 20.3804 56.2069 20.3804C56.1275 20.3804 56.0481 20.3901 55.9687 20.4069C52.3935 21.2442 49.4318 22.1536 47.5768 22.7719C47.2207 22.8898 46.9657 23.1809 46.8935 23.5515C46.8237 23.922 46.9537 24.2877 47.2424 24.5307C47.4372 24.6943 47.6706 24.7785 47.9112 24.7785H54.797H54.7994Z" fill="white"/>
<path d="M30.4989 3.22131C22.3235 3.22131 18.1853 3.68566 16.7009 3.90219C16.287 3.96234 15.9237 4.19812 15.6976 4.55179L10.6523 12.4457H50.3454L45.3002 4.55179C45.074 4.20053 44.7107 3.96234 44.2969 3.90219C42.8124 3.68566 38.6742 3.22131 30.4989 3.22131Z" fill="white"/>
<path opacity="0.24" d="M11.2793 12.104L15.9901 4.73702C16.1609 4.46756 16.44 4.28711 16.7552 4.2414C18.1506 4.0369 22.284 3.56293 30.5027 3.56293C38.7214 3.56293 42.8547 4.0369 44.2502 4.2414C44.563 4.28711 44.842 4.46756 45.0153 4.73702L49.7261 12.104H11.2793Z" fill="white"/>
<path d="M40.7264 21.0444H20.2735C20.1128 21.0444 19.9824 21.1748 19.9824 21.3356V21.338C19.9824 21.4987 20.1128 21.6291 20.2735 21.6291H40.7264C40.8871 21.6291 41.0175 21.4987 41.0175 21.338V21.3356C41.0175 21.1748 40.8871 21.0444 40.7264 21.0444Z" fill="#1B4DFC"/>
</g>
<path d="M76.344 24.5V7.22H79.824L86.088 14.684L92.328 7.22H95.832V24.5H92.64V11.828L86.088 19.628L79.512 11.852V24.5H76.344ZM101.662 24.5C101.054 24.5 100.494 24.348 99.9816 24.044C99.4856 23.74 99.0856 23.34 98.7816 22.844C98.4936 22.348 98.3496 21.796 98.3496 21.188V15.956H109.342V14.012C109.342 13.932 109.31 13.868 109.246 13.82C109.198 13.756 109.134 13.724 109.054 13.724H98.3496V10.58H109.174C109.782 10.58 110.334 10.732 110.83 11.036C111.342 11.34 111.742 11.74 112.03 12.236C112.334 12.732 112.486 13.284 112.486 13.892V24.5H101.662ZM101.782 21.356H109.342V18.788H101.494V21.068C101.494 21.148 101.518 21.22 101.566 21.284C101.63 21.332 101.702 21.356 101.782 21.356ZM117.714 24.5C117.106 24.5 116.554 24.348 116.058 24.044C115.562 23.74 115.162 23.34 114.858 22.844C114.554 22.348 114.402 21.796 114.402 21.188V20.66H117.546V21.068C117.546 21.148 117.57 21.22 117.618 21.284C117.682 21.332 117.754 21.356 117.834 21.356H125.106C125.186 21.356 125.25 21.332 125.298 21.284C125.362 21.22 125.394 21.148 125.394 21.068V19.412C125.394 19.332 125.362 19.268 125.298 19.22C125.25 19.156 125.186 19.124 125.106 19.124H117.714C117.106 19.124 116.554 18.972 116.058 18.668C115.562 18.364 115.162 17.964 114.858 17.468C114.554 16.972 114.402 16.42 114.402 15.812V13.892C114.402 13.284 114.554 12.732 114.858 12.236C115.162 11.74 115.562 11.34 116.058 11.036C116.554 10.732 117.106 10.58 117.714 10.58H125.226C125.85 10.58 126.41 10.732 126.906 11.036C127.402 11.34 127.802 11.74 128.106 12.236C128.41 12.732 128.562 13.284 128.562 13.892V14.42H125.394V14.012C125.394 13.932 125.362 13.868 125.298 13.82C125.25 13.756 125.186 13.724 125.106 13.724H117.834C117.754 13.724 117.682 13.756 117.618 13.82C117.57 13.868 117.546 13.932 117.546 14.012V15.668C117.546 15.748 117.57 15.82 117.618 15.884C117.682 15.932 117.754 15.956 117.834 15.956H125.226C125.85 15.956 126.41 16.108 126.906 16.412C127.402 16.716 127.802 17.116 128.106 17.612C128.41 18.108 128.562 18.66 128.562 19.268V21.188C128.562 21.796 128.41 22.348 128.106 22.844C127.802 23.34 127.402 23.74 126.906 24.044C126.41 24.348 125.85 24.5 125.226 24.5H117.714ZM130.999 24.5V6.02H134.143V10.58H141.823C142.431 10.58 142.983 10.732 143.479 11.036C143.975 11.34 144.375 11.74 144.679 12.236C144.983 12.732 145.135 13.284 145.135 13.892V24.5H141.991V14.012C141.991 13.932 141.959 13.868 141.895 13.82C141.847 13.756 141.783 13.724 141.703 13.724H134.431C134.351 13.724 134.279 13.756 134.215 13.82C134.167 13.868 134.143 13.932 134.143 14.012V24.5H130.999ZM147.006 24.5V10.58H150.15V24.5H147.006ZM147.006 9.188V6.02H150.15V9.188H147.006ZM152.937 24.5V10.58H163.761C164.369 10.58 164.921 10.732 165.417 11.036C165.929 11.34 166.329 11.74 166.617 12.236C166.921 12.732 167.073 13.284 167.073 13.892V24.5H163.929V14.012C163.929 13.932 163.897 13.868 163.833 13.82C163.785 13.756 163.721 13.724 163.641 13.724H156.369C156.289 13.724 156.217 13.756 156.153 13.82C156.105 13.868 156.081 13.932 156.081 14.012V24.5H152.937ZM172.912 24.5C172.304 24.5 171.744 24.348 171.232 24.044C170.736 23.74 170.336 23.34 170.032 22.844C169.744 22.348 169.6 21.796 169.6 21.188V15.956H180.592V14.012C180.592 13.932 180.56 13.868 180.496 13.82C180.448 13.756 180.384 13.724 180.304 13.724H169.6V10.58H180.424C181.032 10.58 181.584 10.732 182.08 11.036C182.592 11.34 182.992 11.74 183.28 12.236C183.584 12.732 183.736 13.284 183.736 13.892V24.5H172.912ZM173.032 21.356H180.592V18.788H172.744V21.068C172.744 21.148 172.768 21.22 172.816 21.284C172.88 21.332 172.952 21.356 173.032 21.356ZM186.312 24.5V21.356H189.456V24.5H186.312ZM191.749 24.5V6.02H194.893V15.956H197.365L202.333 10.58H205.693V11.444L200.149 17.54L205.669 23.636V24.5H202.333L197.365 19.124H194.893V24.5H191.749ZM209.281 29.996V26.828H217.657C217.737 26.828 217.801 26.796 217.849 26.732C217.913 26.684 217.945 26.62 217.945 26.54V24.5H210.265C209.673 24.5 209.121 24.348 208.609 24.044C208.113 23.74 207.713 23.34 207.409 22.844C207.105 22.348 206.953 21.796 206.953 21.188V13.892C206.953 13.284 207.105 12.732 207.409 12.236C207.713 11.74 208.113 11.34 208.609 11.036C209.121 10.732 209.673 10.58 210.265 10.58H217.801C218.409 10.58 218.961 10.732 219.457 11.036C219.953 11.34 220.345 11.74 220.633 12.236C220.937 12.732 221.089 13.284 221.089 13.892V26.684C221.089 27.308 220.945 27.868 220.657 28.364C220.369 28.86 219.969 29.252 219.457 29.54C218.961 29.844 218.409 29.996 217.801 29.996H209.281ZM210.385 21.356H217.657C217.737 21.356 217.801 21.332 217.849 21.284C217.913 21.22 217.945 21.148 217.945 21.068V14.012C217.945 13.932 217.913 13.868 217.849 13.82C217.801 13.756 217.737 13.724 217.657 13.724H210.385C210.305 13.724 210.233 13.756 210.169 13.82C210.121 13.868 210.097 13.932 210.097 14.012V21.068C210.097 21.148 210.121 21.22 210.169 21.284C210.233 21.332 210.305 21.356 210.385 21.356Z" fill="#1B4DFC"/>
<defs>
<clipPath id="clip0_24_467">
<rect width="61" height="26.8093" fill="white" transform="translate(0 2.09534)"/>
</clipPath>
</defs>
</svg>
