<svg width="175" height="31" viewBox="0 0 175 31" fill="none" xmlns="http://www.w3.org/2000/svg">
<g clip-path="url(#clip0_24_471)">
<path d="M25.9185 3.5L19.4429 8.22907L12.9727 3.5L0 12.9743V27.4947H7.5289V24.3079H3.18675V14.5972L12.9727 7.44985L16.7398 10.2013L12.9405 12.9743V27.4947H25.9454V12.9743L22.146 10.2013L25.9132 7.44985L35.6991 14.5972V24.3079H31.0023V27.4947H38.8912V12.9743L25.9185 3.5ZM22.7587 14.5972V24.3079H16.1326V14.5972L19.4429 12.1789L22.7533 14.5972H22.7587Z" fill="#FF0000"/>
</g>
<path d="M71.3765 6.7V23.5H67.8965V16.18H58.0565V23.5H54.5765V6.7H58.0565V14.38H67.8965V6.7H71.3765ZM81.4527 22.42C81.9647 22.42 82.4447 22.324 82.8927 22.132C83.3407 21.94 83.7327 21.644 84.0687 21.244C84.4047 20.828 84.6687 20.292 84.8607 19.636C85.0687 18.98 85.1727 18.188 85.1727 17.26C85.1727 16.332 85.0687 15.54 84.8607 14.884C84.6687 14.228 84.4047 13.7 84.0687 13.3C83.7327 12.884 83.3407 12.58 82.8927 12.388C82.4447 12.196 81.9647 12.1 81.4527 12.1C80.9407 12.1 80.4607 12.196 80.0127 12.388C79.5647 12.58 79.1727 12.884 78.8367 13.3C78.5007 13.7 78.2287 14.228 78.0207 14.884C77.8287 15.54 77.7327 16.332 77.7327 17.26C77.7327 18.188 77.8287 18.98 78.0207 19.636C78.2287 20.292 78.5007 20.828 78.8367 21.244C79.1727 21.644 79.5647 21.94 80.0127 22.132C80.4607 22.324 80.9407 22.42 81.4527 22.42ZM81.4527 10.54C82.5247 10.54 83.5087 10.692 84.4047 10.996C85.3167 11.284 86.0927 11.716 86.7327 12.292C87.3727 12.852 87.8687 13.556 88.2207 14.404C88.5887 15.236 88.7727 16.188 88.7727 17.26C88.7727 18.348 88.5887 19.308 88.2207 20.14C87.8687 20.972 87.3727 21.676 86.7327 22.252C86.0927 22.812 85.3167 23.236 84.4047 23.524C83.5087 23.828 82.5247 23.98 81.4527 23.98C80.3647 23.98 79.3727 23.828 78.4767 23.524C77.5807 23.236 76.8127 22.812 76.1727 22.252C75.5327 21.676 75.0287 20.972 74.6607 20.14C74.3087 19.308 74.1327 18.348 74.1327 17.26C74.1327 16.188 74.3087 15.236 74.6607 14.404C75.0287 13.556 75.5327 12.852 76.1727 12.292C76.8127 11.716 77.5807 11.284 78.4767 10.996C79.3727 10.692 80.3647 10.54 81.4527 10.54ZM91.5374 11.02H94.8974V18.58C94.8974 19.732 95.1854 20.564 95.7614 21.076C96.3374 21.572 97.1694 21.82 98.2574 21.82H101.377V11.02H104.737V23.5H98.2574C95.9694 23.5 94.2734 23.092 93.1694 22.276C92.0814 21.444 91.5374 20.212 91.5374 18.58V11.02ZM110.988 13.66C110.988 14.028 111.148 14.364 111.468 14.668C111.804 14.972 112.364 15.236 113.148 15.46L116.868 16.54C118.02 16.876 118.908 17.332 119.532 17.908C120.156 18.484 120.468 19.228 120.468 20.14C120.468 20.716 120.348 21.244 120.108 21.724C119.868 22.188 119.476 22.588 118.932 22.924C118.388 23.26 117.684 23.516 116.82 23.692C115.956 23.884 114.892 23.98 113.628 23.98C112.972 23.98 112.324 23.932 111.684 23.836C111.06 23.74 110.46 23.612 109.884 23.452C109.324 23.276 108.812 23.084 108.348 22.876C107.884 22.652 107.484 22.42 107.148 22.18L108.108 20.74C108.78 21.156 109.564 21.524 110.46 21.844C111.372 22.148 112.428 22.3 113.628 22.3C114.828 22.3 115.668 22.14 116.148 21.82C116.628 21.5 116.868 21.1 116.868 20.62C116.868 20.252 116.7 19.924 116.364 19.636C116.028 19.332 115.436 19.06 114.588 18.82L110.868 17.74C109.844 17.436 109.004 17.004 108.348 16.444C107.708 15.868 107.388 15.1 107.388 14.14C107.388 13.628 107.5 13.156 107.724 12.724C107.964 12.276 108.332 11.892 108.828 11.572C109.324 11.252 109.956 11.004 110.724 10.828C111.492 10.636 112.42 10.54 113.508 10.54C114.836 10.54 116.036 10.724 117.108 11.092C118.196 11.444 119.076 11.86 119.748 12.34L118.788 13.78C118.132 13.364 117.388 13.004 116.556 12.7C115.724 12.38 114.708 12.22 113.508 12.22C112.66 12.22 112.028 12.356 111.612 12.628C111.196 12.9 110.988 13.244 110.988 13.66ZM130.073 22.3C130.857 22.3 131.585 22.164 132.257 21.892C132.945 21.62 133.617 21.236 134.273 20.74L135.233 22.18C134.929 22.452 134.569 22.7 134.153 22.924C133.753 23.148 133.313 23.34 132.833 23.5C132.369 23.644 131.881 23.756 131.369 23.836C130.857 23.932 130.345 23.98 129.833 23.98C128.697 23.98 127.657 23.828 126.713 23.524C125.785 23.236 124.993 22.812 124.337 22.252C123.681 21.676 123.169 20.972 122.801 20.14C122.449 19.308 122.273 18.348 122.273 17.26C122.273 16.188 122.441 15.236 122.777 14.404C123.129 13.556 123.609 12.852 124.217 12.292C124.841 11.716 125.577 11.284 126.425 10.996C127.273 10.692 128.209 10.54 129.233 10.54C130.193 10.54 131.097 10.684 131.945 10.972C132.793 11.26 133.529 11.684 134.153 12.244C134.777 12.788 135.273 13.452 135.641 14.236C136.009 15.02 136.193 15.908 136.193 16.9V18.58H125.945C126.137 19.908 126.593 20.86 127.313 21.436C128.049 22.012 128.969 22.3 130.073 22.3ZM129.233 12.1C128.769 12.1 128.337 12.188 127.937 12.364C127.537 12.54 127.185 12.82 126.881 13.204C126.593 13.588 126.353 14.084 126.161 14.692C125.985 15.3 125.889 16.036 125.873 16.9H132.593C132.593 16.068 132.497 15.348 132.305 14.74C132.113 14.132 131.857 13.636 131.537 13.252C131.233 12.852 130.873 12.564 130.457 12.388C130.057 12.196 129.649 12.1 129.233 12.1ZM142.071 21.94C142.071 22.42 141.903 22.844 141.567 23.212C141.247 23.564 140.815 23.74 140.271 23.74C139.727 23.74 139.287 23.564 138.951 23.212C138.631 22.844 138.471 22.42 138.471 21.94C138.471 21.46 138.631 21.044 138.951 20.692C139.287 20.324 139.727 20.14 140.271 20.14C140.799 20.14 141.231 20.324 141.567 20.692C141.903 21.044 142.071 21.46 142.071 21.94ZM150.831 17.98H148.311V23.5H144.951V6.7H148.311V16.3H150.831L154.551 11.02H158.151L153.951 17.02L158.391 23.5H154.551L150.831 17.98ZM166.554 12.7C165.402 12.7 164.49 13.06 163.818 13.78C163.162 14.484 162.834 15.564 162.834 17.02C162.834 18.476 163.162 19.564 163.818 20.284C164.49 20.988 165.402 21.34 166.554 21.34H169.554V12.7H166.554ZM172.914 23.26C172.914 24.012 172.77 24.692 172.482 25.3C172.194 25.924 171.762 26.46 171.186 26.908C170.626 27.356 169.914 27.7 169.05 27.94C168.202 28.18 167.21 28.3 166.074 28.3C165.69 28.3 165.274 28.268 164.826 28.204C164.394 28.156 163.954 28.068 163.506 27.94C163.058 27.828 162.618 27.676 162.186 27.484C161.77 27.308 161.386 27.1 161.034 26.86L161.874 25.42C162.418 25.788 163.034 26.076 163.722 26.284C164.41 26.508 165.114 26.62 165.834 26.62C167.034 26.62 167.954 26.348 168.594 25.804C169.234 25.26 169.554 24.412 169.554 23.26V23.02H166.554C165.45 23.02 164.442 22.876 163.53 22.588C162.634 22.3 161.866 21.892 161.226 21.364C160.586 20.836 160.09 20.204 159.738 19.468C159.402 18.732 159.234 17.916 159.234 17.02C159.234 16.124 159.402 15.308 159.738 14.572C160.09 13.836 160.586 13.204 161.226 12.676C161.866 12.148 162.634 11.74 163.53 11.452C164.442 11.164 165.45 11.02 166.554 11.02H172.914V23.26Z" fill="#FF0000"/>
<defs>
<clipPath id="clip0_24_471">
<rect width="38.8966" height="24" fill="white" transform="translate(0 3.5)"/>
</clipPath>
</defs>
</svg>
